name C:/MyDriveSym/Projects/mobilecap/Data\Session20210830_0001\mocap\ForceDataProcessed\DJ2_forces.mot
datacolumns 28
datarows 10
range 1.15450000 1.15900000
endheader 
time	R_ground_force_vx	R_ground_force_vy	R_ground_force_vz	R_ground_force_px	R_ground_force_py	R_ground_force_pz	R_ground_torque_x	R_ground_torque_y	R_ground_torque_z	L_ground_force_vx	L_ground_force_vy	L_ground_force_vz	L_ground_force_px	L_ground_force_py	L_ground_force_pz	L_ground_torque_x	L_ground_torque_y	L_ground_torque_z	3_ground_force_vx	3_ground_force_vy	3_ground_force_vz	3_ground_force_px	3_ground_force_py	3_ground_force_pz	3_ground_torque_x	3_ground_torque_y	3_ground_torque_z	
          1.15450000	       -100.15887600	        769.14707600	        -12.30240000	         -0.20571300	          0.00600000	         -0.50103400	          0.00000000	         -4.56969300	          0.00000000	        -90.61865900	        766.87206900	         20.49281000	         -0.25506500	          0.00600000	         -0.71946200	          0.00000000	          3.38413600	          0.00000000	          0.00000000	          0.00000000	          0.00000000	          0.00000000	          0.00000000	          0.00000000	          0.00000000	          0.00000000	          0.00000000	
          1.15500000	       -100.07770600	        769.11640600	        -12.06714100	         -0.20566900	          0.00600000	         -0.50105600	          0.00000000	         -4.59427700	          0.00000000	        -90.08171900	        767.86770300	         20.34082600	         -0.25511800	          0.00600000	         -0.71940800	          0.00000000	          3.42018700	          0.00000000	          0.00000000	          0.00000000	          0.00000000	          0.00000000	          0.00000000	          0.00000000	          0.00000000	          0.00000000	          0.00000000	
          1.15550000	        -99.98733100	        769.10341500	        -11.83392000	         -0.20562800	          0.00600000	         -0.50107800	          0.00000000	         -4.61817200	          0.00000000	        -89.53708500	        768.86520100	         20.17476500	         -0.25517300	          0.00600000	         -0.71935100	          0.00000000	          3.45733800	          0.00000000	          0.00000000	          0.00000000	          0.00000000	          0.00000000	          0.00000000	          0.00000000	          0.00000000	          0.00000000	          0.00000000	
          1.15600000	        -99.88732700	        769.10907000	        -11.60292000	         -0.20558800	          0.00600000	         -0.50110000	          0.00000000	         -4.64136100	          0.00000000	        -88.98508000	        769.86381700	         19.99532200	         -0.25523100	          0.00600000	         -0.71929300	          0.00000000	          3.49557200	          0.00000000	          0.00000000	          0.00000000	          0.00000000	          0.00000000	          0.00000000	          0.00000000	          0.00000000	          0.00000000	          0.00000000	
          1.15650000	        -99.77724300	        769.13430800	        -11.37431500	         -0.20555100	          0.00600000	         -0.50112200	          0.00000000	         -4.66383000	          0.00000000	        -88.42605100	        770.86274500	         19.80322900	         -0.25529200	          0.00600000	         -0.71923400	          0.00000000	          3.53486300	          0.00000000	          0.00000000	          0.00000000	          0.00000000	          0.00000000	          0.00000000	          0.00000000	          0.00000000	          0.00000000	          0.00000000	
          1.15700000	        -99.65660900	        769.18004100	        -11.14826100	         -0.20551700	          0.00600000	         -0.50114400	          0.00000000	         -4.68556000	          0.00000000	        -87.86035900	        771.86111700	         19.59924100	         -0.25535400	          0.00600000	         -0.71917300	          0.00000000	          3.57516800	          0.00000000	          0.00000000	          0.00000000	          0.00000000	          0.00000000	          0.00000000	          0.00000000	          0.00000000	          0.00000000	          0.00000000	
          1.15750000	        -99.52493900	        769.24717000	        -10.92490400	         -0.20548500	          0.00600000	         -0.50116600	          0.00000000	         -4.70652800	          0.00000000	        -87.28836800	        772.85800300	         19.38413500	         -0.25541900	          0.00600000	         -0.71911100	          0.00000000	          3.61643000	          0.00000000	          0.00000000	          0.00000000	          0.00000000	          0.00000000	          0.00000000	          0.00000000	          0.00000000	          0.00000000	          0.00000000	
          1.15800000	        -99.38172300	        769.33659200	        -10.70438900	         -0.20545600	          0.00600000	         -0.50118800	          0.00000000	         -4.72671200	          0.00000000	        -86.71043500	        773.85240200	         19.15871400	         -0.25548600	          0.00600000	         -0.71904700	          0.00000000	          3.65858700	          0.00000000	          0.00000000	          0.00000000	          0.00000000	          0.00000000	          0.00000000	          0.00000000	          0.00000000	          0.00000000	          0.00000000	
          1.15850000	        -99.22641900	        769.44919000	        -10.48686100	         -0.20543000	          0.00600000	         -0.50121100	          0.00000000	         -4.74609400	          0.00000000	        -86.12691600	        774.84322900	         18.92380900	         -0.25555400	          0.00600000	         -0.71898300	          0.00000000	          3.70157400	          0.00000000	          0.00000000	          0.00000000	          0.00000000	          0.00000000	          0.00000000	          0.00000000	          0.00000000	          0.00000000	          0.00000000	
          1.15900000	        -99.05845200	        769.58581900	        -10.27248600	         -0.20540700	          0.00600000	         -0.50123400	          0.00000000	         -4.76466100	          0.00000000	        -85.53817700	        775.82934400	         18.68027300	         -0.25562400	          0.00600000	         -0.71891800	          0.00000000	          3.74532500	          0.00000000	          0.00000000	          0.00000000	          0.00000000	          0.00000000	          0.00000000	          0.00000000	          0.00000000	          0.00000000	          0.00000000	
